<svg xmlns="http://www.w3.org/2000/svg" viewBox="0 0 400 220" role="img" aria-labelledby="t d">
  <title id="t">Comunidad y tierra Wix·rika</title>
  <desc id="d">IlustraciÛn abstracta con montaÒas, sol y formas que evocan el paisaje del occidente de MÈxico.</desc>
  <defs>
    <linearGradient id="sky" x1="0%" y1="0%" x2="0%" y2="100%">
      <stop offset="0%" style="stop-color:#fff7ed"/>
      <stop offset="100%" style="stop-color:#ffedd5"/>
    </linearGradient>
    <linearGradient id="hill" x1="0%" y1="0%" x2="0%" y2="100%">
      <stop offset="0%" style="stop-color:#ea580c"/>
      <stop offset="100%" style="stop-color:#c2410c"/>
    </linearGradient>
  </defs>
  <rect width="400" height="220" fill="url(#sky)"/>
  <circle cx="320" cy="48" r="36" fill="#fb923c" opacity="0.85"/>
  <path d="M0 160 L80 90 L140 130 L200 70 L280 140 L400 100 L400 220 L0 220 Z" fill="url(#hill)" opacity="0.35"/>
  <path d="M0 180 L120 110 L200 150 L320 95 L400 125 L400 220 L0 220 Z" fill="#9a3412" opacity="0.5"/>
  <path d="M0 200 L60 170 L100 185 L180 155 L260 175 L340 160 L400 175 L400 220 L0 220 Z" fill="#7c2d12" opacity="0.65"/>
  <g fill="#78350f" opacity="0.4">
    <ellipse cx="100" cy="188" rx="14" ry="6"/>
    <ellipse cx="200" cy="192" rx="18" ry="7"/>
    <ellipse cx="300" cy="186" rx="12" ry="5"/>
  </g>
</svg>
